<?xml version="1.0" encoding="utf-8"?>
<svg viewBox="0 0 499 382" xmlns="http://www.w3.org/2000/svg">
  <g transform="matrix(0.1, 0, 0, -0.1, 0, 382.000006)" fill="#000000" stroke="none">
    <path d="M2205 3793 c-300 -43 -658 -201 -905 -400 -96 -78 -260 -247 -331 -343 -163 -218 -284 -487 -338 -747 -12 -56 -21 -113 -21 -127 l0 -26 228 0 c134 0 243 5 267 11 62 17 97 61 134 168 92 266 270 506 493 665 87 61 237 137 337 171 101 33 152 70 182 132 23 46 24 59 27 276 l3 227 -23 -1 c-13 -1 -36 -4 -53 -6z" style="fill: rgb(3, 125, 214);"/>
    <path d="M2690 3577 c0 -221 0 -224 26 -276 33 -64 71 -91 195 -135 205 -72 367 -174 514 -321 192 -191 314 -420 367 -690 25 -127 26 -341 3 -470 -86 -482 -430 -879 -893 -1030 -100 -33 -137 -57 -177 -113 l-30 -44 -3 -240 -3 -241 63 7 c168 19 385 84 566 171 575 276 974 826 1063 1465 15 109 15 391 0 500 -79 563 -405 1070 -879 1363 -165 102 -334 177 -504 222 -101 27 -247 55 -285 55 l-23 0 0 -223z" style="fill: rgb(3, 125, 214);"/>
    <path d="M1837 2648 c-9 -107 -9 -471 0 -1077 l6 -483 421 4 c387 5 427 7 497 26 162 44 286 118 401 240 83 88 138 180 180 302 31 91 32 102 33 245 0 175 -12 231 -80 370 -98 204 -282 356 -515 426 -72 22 -94 23 -506 27 l-431 3 -6 -83z m861 -479 c108 -53 168 -158 159 -275 -6 -82 -81 -235 -107 -219 -4 3 -11 -2 -14 -11 -3 -8 -10 -12 -16 -9 -5 3 -10 1 -10 -5 0 -6 -4 -8 -10 -5 -5 3 -10 1 -10 -5 0 -6 -4 -8 -10 -5 -5 3 -10 1 -10 -5 0 -7 -6 -10 -14 -7 -8 3 -16 2 -18 -2 -2 -4 -65 -6 -140 -3 l-138 5 0 288 0 289 138 0 c135 0 141 -1 200 -31z m-361 -555 c-3 -3 -12 -4 -19 -1 -8 3 -5 6 6 6 11 1 17 -2 13 -5z" style="fill: rgb(3, 125, 214);"/>
    <path d="M604 1678 c30 -270 147 -588 301 -818 286 -426 715 -715 1210 -815 186 -38 165 -63 165 198 0 211 -1 224 -24 272 -33 72 -77 106 -187 144 -401 140 -706 452 -838 860 -39 120 -62 156 -125 191 l-51 30 -229 0 -229 0 7 -62z" style="fill: rgb(3, 125, 214);"/>
  </g>
</svg>